<svg xmlns="http://www.w3.org/2000/svg" viewBox="0 0 512 512">
  <defs>
    <linearGradient id="bg" x1="0%" y1="0%" x2="100%" y2="100%">
      <stop offset="0%" stop-color="#2563eb" />
      <stop offset="100%" stop-color="#4f46e5" />
    </linearGradient>
  </defs>
  <rect width="512" height="512" rx="128" fill="url(#bg)" />
  <g transform="translate(96, 96)" fill="none" stroke="#ffffff" stroke-width="24" stroke-linecap="round" stroke-linejoin="round">
    <path d="M40 80h240a32 32 0 0 1 32 32v128a32 32 0 0 1-32 32H40a32 32 0 0 1-32-32V112a32 32 0 0 1 32-32z" fill="#3b82f6" fill-opacity="0.3"/>
    <path d="M8 128h304"/>
    <path d="M224 184h64a24 24 0 0 1 24 24v24a24 24 0 0 1-24 24h-64z" fill="#ffffff"/>
    <circle cx="256" cy="208" r="8" fill="#2563eb"/>
  </g>
</svg>

